<svg xmlns="http://www.w3.org/2000/svg" viewBox="0 0 269.92 125.7"><defs><style>.cls-1{fill:#fbfbfb;}</style></defs><g id="Capa_2" data-name="Capa 2"><g id="Symbol"><path class="cls-1" d="M45.89,68.87a2.07,2.07,0,0,1,0-3l5.21-5.14L48.17,71Z"/><path class="cls-1" d="M36,65a2.07,2.07,0,0,0,1.24,2.54l7.24,2.76L37.05,61.7Z"/><path class="cls-1" d="M40.48,63.63l1.15,1.18a2.06,2.06,0,0,0,2.94,0l1.33-1.34A2.07,2.07,0,0,0,44.29,60l-2.47.17A2.06,2.06,0,0,0,40.48,63.63Z"/><path class="cls-1" d="M25,62.51l6.47,2.62a2.08,2.08,0,0,0,2.81-1.52h0a2.07,2.07,0,0,0-2.42-2.43Z"/><path class="cls-1" d="M.25,36.5a.36.36,0,0,0,.07.7l12.44,1.5a4.22,4.22,0,0,0,3-.74c2.85-2,.29-6.53-3-5.46Z"/><path class="cls-1" d="M16,31.57l4.31,4.13a5,5,0,0,0,8.14-1.9l2.76-7.59a.44.44,0,0,0-.56-.56L16.13,30.84A.44.44,0,0,0,16,31.57Z"/><path class="cls-1" d="M32.7,25.18h0a5.19,5.19,0,0,0,7.35,6.39L44.64,29a1,1,0,0,0,.19-1.54l-1.18-1.07a9.81,9.81,0,0,0-10.43-1.78h0A.92.92,0,0,0,32.7,25.18Z"/><path class="cls-1" d="M51.8,32.85l.57,8.45a.89.89,0,0,0,1.21.77h0a5.13,5.13,0,0,0,1.13-8.92l-1.5-1.08A.89.89,0,0,0,51.8,32.85Z"/><path class="cls-1" d="M46.05,36.45,39.41,46.54A2.22,2.22,0,0,0,40,49.59l6.94,4.83a2.22,2.22,0,0,0,3.49-1.87l-.29-14.92A2.22,2.22,0,0,0,46.05,36.45Z"/><path class="cls-1" d="M35.27,38.18l12.46-6.73L38.45,44.71a2.6,2.6,0,0,1-3.66.61h0A4.23,4.23,0,0,1,35.27,38.18Z"/><path class="cls-1" d="M52,44.19l.19,11.48a.51.51,0,0,0,.92.28l3.71-5.34A4.23,4.23,0,0,0,52,44.19Z"/><path class="cls-1" d="M16.74,13,34.37,6.6a.75.75,0,0,1,.84.24l5.67,7.47a.74.74,0,0,1-.62,1.18L17,14.43A.73.73,0,0,1,16.74,13Z"/><path class="cls-1" d="M38,6.63a1.26,1.26,0,0,1,.6-1.9L48.3,1.15a2.59,2.59,0,0,1,2.86,4.09l-5.91,7.87a1.75,1.75,0,0,1-2.84,0Z"/><path class="cls-1" d="M49.81,15.52l8.95-2.59a2.29,2.29,0,0,1,2.29,3.8l-5.61,5.8a2.3,2.3,0,0,1-3.24.06l-3.34-3.2A2.3,2.3,0,0,1,49.81,15.52Z"/><path class="cls-1" d="M57.12,23l7.4-7.12a2.3,2.3,0,0,1,3.87,1.94L66.9,29.94a2.29,2.29,0,0,1-3.77,1.47l-5.9-5A2.3,2.3,0,0,1,57.12,23Z"/><path class="cls-1" d="M70.6,14.58,69,27.2A2.3,2.3,0,0,0,73,29l7.68-8.9a2.29,2.29,0,0,0-.53-3.46l-6-3.72A2.3,2.3,0,0,0,70.6,14.58Z"/><path class="cls-1" d="M55.08,1,49.43,9.51A2.29,2.29,0,0,0,52,13l11.9-3.8a2.3,2.3,0,0,0,.67-4L58.38.46A2.32,2.32,0,0,0,55.08,1Z"/><path class="cls-1" d="M36.56,33.64l-5.84-1.36a1,1,0,0,0-1.18.93V38.4a1,1,0,0,0,1.48.81l5.85-3.83A1,1,0,0,0,36.56,33.64Z"/><circle class="cls-1" cx="68.19" cy="10.79" r="2.72"/><path class="cls-1" d="M211.23,53.66a40.1,40.1,0,0,1-7,54.84l-9.77,8a40.09,40.09,0,0,1-25.49,9l-69.38-.3a40.08,40.08,0,0,1-26.35-10l-8.76-7.73a40.1,40.1,0,0,1-6.19-53.25l14.87-21a40.09,40.09,0,0,1,32.9-16.92l57.73.25a40.09,40.09,0,0,1,32.14,16.35ZM184.65,75.88a11.75,11.75,0,0,0-.16-11.49l-.35-.61a11.74,11.74,0,0,0-10.32-5.87h-.13A11.72,11.72,0,0,0,163.54,64l-.35.64a11.73,11.73,0,0,0,.15,11.49l.35.61A11.74,11.74,0,0,0,174,82.64h.14a11.72,11.72,0,0,0,10.14-6.13Zm-76,.3a11.73,11.73,0,0,0-.15-11.49l-.35-.61a11.74,11.74,0,0,0-10.32-5.86H97.7a11.75,11.75,0,0,0-10.16,6.13L87.2,65a11.73,11.73,0,0,0,.14,11.49l.36.61A11.71,11.71,0,0,0,98,83h.13a11.74,11.74,0,0,0,10.15-6.13Z"/><path class="cls-1" d="M224,68.87a2.08,2.08,0,0,0,0-3l-5.21-5.14L221.76,71Z"/><path class="cls-1" d="M233.88,65a2.07,2.07,0,0,1-1.24,2.54l-7.24,2.76,7.47-8.58Z"/><path class="cls-1" d="M229.44,63.63l-1.14,1.18a2.07,2.07,0,0,1-3,0L224,63.48A2.07,2.07,0,0,1,225.63,60l2.48.17A2.06,2.06,0,0,1,229.44,63.63Z"/><path class="cls-1" d="M244.92,62.51l-6.48,2.62a2.07,2.07,0,0,1-2.8-1.52h0a2.07,2.07,0,0,1,2.42-2.43Z"/><path class="cls-1" d="M269.67,36.5a.36.36,0,0,1-.07.7l-12.44,1.5a4.22,4.22,0,0,1-3-.74c-2.84-2-.29-6.53,3-5.46Z"/><path class="cls-1" d="M254,31.57l-4.31,4.13a5,5,0,0,1-8.14-1.9l-2.75-7.59a.43.43,0,0,1,.55-.56l14.5,5.19A.44.44,0,0,1,254,31.57Z"/><path class="cls-1" d="M237.22,25.18h0a5.19,5.19,0,0,1-7.35,6.39L225.28,29a1,1,0,0,1-.18-1.54l1.18-1.07a9.8,9.8,0,0,1,10.42-1.78h0A.92.92,0,0,1,237.22,25.18Z"/><path class="cls-1" d="M218.13,32.85l-.57,8.45a.9.9,0,0,1-1.22.77h0a5.12,5.12,0,0,1-1.12-8.92l1.5-1.08A.89.89,0,0,1,218.13,32.85Z"/><path class="cls-1" d="M223.87,36.45l6.65,10.09a2.23,2.23,0,0,1-.59,3.05L223,54.42a2.23,2.23,0,0,1-3.49-1.87l.29-14.92A2.22,2.22,0,0,1,223.87,36.45Z"/><path class="cls-1" d="M234.65,38.18,222.2,31.45l9.27,13.26a2.6,2.6,0,0,0,3.66.61h0A4.23,4.23,0,0,0,234.65,38.18Z"/><path class="cls-1" d="M218,44.19l-.19,11.48a.51.51,0,0,1-.92.28l-3.71-5.34A4.23,4.23,0,0,1,218,44.19Z"/><path class="cls-1" d="M253.19,13,235.55,6.6a.75.75,0,0,0-.84.24L229,14.31a.74.74,0,0,0,.62,1.18L253,14.43A.73.73,0,0,0,253.19,13Z"/><path class="cls-1" d="M231.94,6.63a1.26,1.26,0,0,0-.61-1.9l-9.71-3.58a2.59,2.59,0,0,0-2.85,4.09l5.9,7.87a1.75,1.75,0,0,0,2.84,0Z"/><path class="cls-1" d="M220.12,15.52l-9-2.59a2.29,2.29,0,0,0-2.29,3.8l5.61,5.8a2.3,2.3,0,0,0,3.24.06l3.35-3.2A2.3,2.3,0,0,0,220.12,15.52Z"/><path class="cls-1" d="M212.8,23l-7.39-7.12a2.3,2.3,0,0,0-3.88,1.94L203,29.94a2.3,2.3,0,0,0,3.77,1.47l5.9-5A2.3,2.3,0,0,0,212.8,23Z"/><path class="cls-1" d="M199.32,14.58,201,27.2a2.3,2.3,0,0,1-4,1.8l-7.69-8.9a2.3,2.3,0,0,1,.53-3.46l6-3.72A2.3,2.3,0,0,1,199.32,14.58Z"/><path class="cls-1" d="M214.84,1l5.66,8.49A2.3,2.3,0,0,1,217.88,13L206,9.17a2.3,2.3,0,0,1-.68-4L211.55.46A2.3,2.3,0,0,1,214.84,1Z"/><path class="cls-1" d="M233.36,33.64l5.85-1.36a1,1,0,0,1,1.17.93V38.4a1,1,0,0,1-1.48.81l-5.84-3.83A1,1,0,0,1,233.36,33.64Z"/><circle class="cls-1" cx="201.74" cy="10.79" r="2.72"/></g></g></svg>