<svg xmlns="http://www.w3.org/2000/svg" viewBox="0 0 209.75 61.05"><defs><style>.cls-1{fill:#fbfbfb;}</style></defs><g id="Capa_2" data-name="Capa 2"><g id="WORDMARK"><path class="cls-1" d="M0,36.87,9,4.25a1,1,0,0,1,.55-.64L17.13.09a1,1,0,0,1,1.39.65l9.91,36.13a1,1,0,0,1-1,1.27h-4a1,1,0,0,1-1-.75L20.83,31a1,1,0,0,0-1-.74H8.6a1,1,0,0,0-1,.74L6,37.39a1,1,0,0,1-1,.75H1A1,1,0,0,1,0,36.87Zm10.46-12H18a1,1,0,0,0,1-1.25L14.65,7.48h-.84L9.54,23.64A1,1,0,0,0,10.5,24.89Z"/><path class="cls-1" d="M33.14,37.14V4.8a1,1,0,0,1,1-1h9.23a1,1,0,0,1,1,.79l6.5,29.57h.83L58.23,4.59a1,1,0,0,1,1-.79h9.19a1,1,0,0,1,1,1V37.14a1,1,0,0,1-1,1H64.7a1,1,0,0,1-1-1V8.07h-.84L56.37,37.35a1,1,0,0,1-1,.79H47.18a1,1,0,0,1-1-.79L39.71,8.07h-.83V37.14a1,1,0,0,1-1,1H34.14A1,1,0,0,1,33.14,37.14Z"/><path class="cls-1" d="M89.35,38.82q-6.37,0-10.18-3.55T75.37,25V16.9q0-6.67,3.8-10.23T89.35,3.12q6.42,0,10.2,3.55t3.78,10.23V25q0,6.67-3.78,10.23T89.35,38.82Zm0-5.29a7.86,7.86,0,0,0,6-2.24,8.38,8.38,0,0,0,2.13-6.05V16.7a8.42,8.42,0,0,0-2.13-6.06,7.9,7.9,0,0,0-6-2.23,7.81,7.81,0,0,0-5.91,2.23A8.38,8.38,0,0,0,81.3,16.7v8.54a8.34,8.34,0,0,0,2.14,6.05A7.78,7.78,0,0,0,89.35,33.53Z"/><path class="cls-1" d="M106.78,36.62l9.14-15.28a1,1,0,0,0,0-1l-9-15a1,1,0,0,1,.86-1.52h4.37a1,1,0,0,1,.87.51l7,12.34h.84l7-12.34a1,1,0,0,1,.87-.51h4.42A1,1,0,0,1,134,5.32l-9,15a1,1,0,0,0,0,1l9.09,15.29a1,1,0,0,1-.86,1.51h-4.37a1,1,0,0,1-.88-.51L120.89,25h-.84l-7.12,12.64a1,1,0,0,1-.87.51h-4.42A1,1,0,0,1,106.78,36.62Z"/><path class="cls-1" d="M147.67,37.14v-27a1,1,0,0,0-1-1h-8.26a1,1,0,0,1-1-1V4.8a1,1,0,0,1,1-1H162.8a1,1,0,0,1,1,1V8.15a1,1,0,0,1-1,1h-8.25a1,1,0,0,0-1,1v27a1,1,0,0,1-1,1h-3.88A1,1,0,0,1,147.67,37.14Z"/><path class="cls-1" d="M168.41,37.14V4.8a1,1,0,0,1,1-1h3.94a1,1,0,0,1,1,1v27a1,1,0,0,0,1,1h14.08a1,1,0,0,1,1,1v3.35a1,1,0,0,1-1,1h-20A1,1,0,0,1,168.41,37.14Z"/><path class="cls-1" d="M195,37.14V4.8a1,1,0,0,1,1-1H200a1,1,0,0,1,1,1V37.14a1,1,0,0,1-1,1H196A1,1,0,0,1,195,37.14Z"/><path class="cls-1" d="M206.87,8.81a3,3,0,0,1-1.47-.36,2.75,2.75,0,0,1-1-1A2.88,2.88,0,0,1,204,6a2.91,2.91,0,0,1,.38-1.48,2.72,2.72,0,0,1,1-1,3.2,3.2,0,0,1,2.95,0,2.72,2.72,0,0,1,1,1A2.91,2.91,0,0,1,209.75,6a2.88,2.88,0,0,1-.38,1.48,2.75,2.75,0,0,1-1,1A3,3,0,0,1,206.87,8.81Zm0-.56a2.27,2.27,0,0,0,1.66-.62A2.25,2.25,0,0,0,209.16,6a2.29,2.29,0,1,0-4.57,0,2.16,2.16,0,0,0,2.28,2.29Zm-1-.8v-3h1.16a1.09,1.09,0,0,1,.77.24.8.8,0,0,1,.26.58.78.78,0,0,1-.13.46.85.85,0,0,1-.42.3v.14a.44.44,0,0,1,.34.15.64.64,0,0,1,.1.36v.8h-.56V6.63c0-.19-.1-.28-.29-.28h-.67v1.1Zm.56-1.62h.6a.44.44,0,0,0,.35-.14.45.45,0,0,0-.35-.77h-.6Z"/><path class="cls-1" d="M93.15,60.73V44.5h6.21a5.82,5.82,0,0,1,2.61.57,4.36,4.36,0,0,1,2.49,4.14v.3a4.55,4.55,0,0,1-.68,2.51,4.38,4.38,0,0,1-1.85,1.61,5.73,5.73,0,0,1-2.57.56H95.1v6.54Zm1.95-8.3h4.05a3.63,3.63,0,0,0,2.46-.78,2.72,2.72,0,0,0,.9-2.19v-.23a2.74,2.74,0,0,0-.89-2.19,3.62,3.62,0,0,0-2.47-.77H95.1Z"/><path class="cls-1" d="M104.48,60.73l5-16.23h3.43l5,16.23h-2l-1.25-4.11h-6.91l-1.25,4.11Zm3.76-5.87h5.91l-2.78-9.17H111Z"/><path class="cls-1" d="M120.36,60.73V44.5h6.55a6.51,6.51,0,0,1,2.66.52,4.25,4.25,0,0,1,1.79,1.49,4,4,0,0,1,.65,2.3v.26a3.68,3.68,0,0,1-2.57,3.78v.32a2,2,0,0,1,1.38.55,2.05,2.05,0,0,1,.54,1.56v5.45h-1.92V55.51a1.46,1.46,0,0,0-.38-1.07,1.64,1.64,0,0,0-1.15-.37H122.3v6.66Zm1.94-8.42h4.43a3.62,3.62,0,0,0,2.47-.77,2.76,2.76,0,0,0,.87-2.17v-.16a2.79,2.79,0,0,0-.86-2.17,3.56,3.56,0,0,0-2.48-.77H122.3Z"/><path class="cls-1" d="M138.71,60.73V46.27H133.5V44.5h12.37v1.77h-5.21V60.73Z"/><path class="cls-1" d="M148.35,60.73V44.5h3.78l5.65,15h.3v-15H160V60.73h-3.78l-5.63-15h-.33v15Z"/><path class="cls-1" d="M163.74,60.73V44.5h10v1.77h-8v5.42h7.39v1.76h-7.39V59h8.15v1.77Z"/><path class="cls-1" d="M176.79,60.73V44.5h6.55A6.51,6.51,0,0,1,186,45a4.25,4.25,0,0,1,1.79,1.49,4,4,0,0,1,.65,2.3v.26a3.68,3.68,0,0,1-2.57,3.78v.32a2,2,0,0,1,1.38.55,2.05,2.05,0,0,1,.54,1.56v5.45h-1.92V55.51a1.46,1.46,0,0,0-.38-1.07,1.64,1.64,0,0,0-1.15-.37h-5.61v6.66Zm1.94-8.42h4.43a3.62,3.62,0,0,0,2.47-.77,2.76,2.76,0,0,0,.87-2.17v-.16a2.79,2.79,0,0,0-.86-2.17,3.56,3.56,0,0,0-2.48-.77h-4.43Z"/><path class="cls-1" d="M196.81,61.05a7.51,7.51,0,0,1-3.15-.63,4.84,4.84,0,0,1-2.19-1.88,5.78,5.78,0,0,1-.8-3.17v-.48h1.92v.48a3.66,3.66,0,0,0,1.18,3,4.58,4.58,0,0,0,3,1,4.3,4.3,0,0,0,2.89-.86,2.7,2.7,0,0,0,1-2.15,2.14,2.14,0,0,0-.45-1.44A3.14,3.14,0,0,0,199,54a13,13,0,0,0-1.9-.59l-1.21-.3a13.47,13.47,0,0,1-2.5-.91,4.24,4.24,0,0,1-1.7-1.4,3.77,3.77,0,0,1-.62-2.23,4.13,4.13,0,0,1,.68-2.37,4.43,4.43,0,0,1,1.93-1.53,7.95,7.95,0,0,1,5.81,0,4.64,4.64,0,0,1,2.07,1.67,4.78,4.78,0,0,1,.75,2.76v1h-1.92v-1a3.31,3.31,0,0,0-.5-1.9,3,3,0,0,0-1.37-1.06,5.34,5.34,0,0,0-2-.35,4.28,4.28,0,0,0-2.57.71,2.33,2.33,0,0,0-1,2A2.17,2.17,0,0,0,193.4,50a2.91,2.91,0,0,0,1.18.87,10.38,10.38,0,0,0,1.83.59l1.21.3a11.83,11.83,0,0,1,2.54.83A4.6,4.6,0,0,1,202,54a3.75,3.75,0,0,1,.68,2.33,4.35,4.35,0,0,1-.72,2.5,4.72,4.72,0,0,1-2,1.66A7.47,7.47,0,0,1,196.81,61.05Z"/></g></g></svg>